<?xml version="1.0" standalone="no"?>
<!DOCTYPE svg PUBLIC "-//W3C//DTD SVG 20010904//EN"
 "http://www.w3.org/TR/2001/REC-SVG-20010904/DTD/svg10.dtd">
<svg version="1.0" xmlns="http://www.w3.org/2000/svg"
 width="93.000000pt" height="93.000000pt" viewBox="0 0 93.000000 93.000000"
 preserveAspectRatio="xMidYMid meet">
<metadata>
Created by potrace 1.11, written by Peter Selinger 2001-2013
</metadata>
<g transform="translate(0.000000,93.000000) scale(0.100000,-0.100000)"
fill="#000000" stroke="none">
<path d="M317 819 c-29 -17 -39 -56 -23 -87 12 -25 10 -34 -23 -112 l-37 -85
-64 -5 c-77 -6 -90 -13 -90 -46 0 -19 8 -29 28 -36 28 -11 29 -14 55 -177 20
-123 31 -169 44 -178 25 -19 506 -18 521 0 6 7 18 71 27 143 25 209 23 201 55
207 39 8 50 45 20 69 -16 13 -39 18 -89 18 l-67 0 -36 85 c-35 82 -35 84 -17
101 25 22 24 69 -1 94 -33 33 -93 21 -109 -23 -11 -29 6 -75 31 -83 18 -5 62
-87 82 -151 l7 -23 -180 0 -180 0 34 78 c27 62 40 79 64 89 52 22 67 77 31
113 -22 22 -55 25 -83 9z m61 -57 c4 -28 -24 -40 -45 -19 -21 21 -9 49 19 45
15 -2 24 -11 26 -26z m220 0 c4 -28 -24 -40 -45 -19 -21 21 -9 49 19 45 15 -2
24 -11 26 -26z m-248 -322 c0 -6 -35 -10 -85 -10 -50 0 -85 4 -85 10 0 6 35
10 85 10 50 0 85 -4 85 -10z m380 0 c0 -6 -60 -10 -160 -10 -100 0 -160 4
-160 10 0 6 60 10 160 10 100 0 160 -4 160 -10z m-450 -180 c0 -60 -4 -100
-10 -100 -6 0 -10 40 -10 100 0 60 4 100 10 100 6 0 10 -40 10 -100z m70 0 c0
-60 -4 -100 -10 -100 -6 0 -10 40 -10 100 0 60 4 100 10 100 6 0 10 -40 10
-100z m80 0 c0 -60 -4 -100 -10 -100 -6 0 -10 40 -10 100 0 60 4 100 10 100 6
0 10 -40 10 -100z m80 0 c0 -60 -4 -100 -10 -100 -6 0 -10 40 -10 100 0 60 4
100 10 100 6 0 10 -40 10 -100z m80 0 c0 -60 -4 -100 -10 -100 -6 0 -10 40
-10 100 0 60 4 100 10 100 6 0 10 -40 10 -100z m80 0 c0 -60 -4 -100 -10 -100
-6 0 -10 40 -10 100 0 60 4 100 10 100 6 0 10 -40 10 -100z"/>
</g>
</svg>
